# xmcd
#
# Track frame offsets: 
#        150
#        22698
#        44908
#        70146
#        84785
#        105454
#        130370
#        151150
#        173295
#        194023
#        214723
#        242060
#        260925
#        279265
#        302363
#        323127
#
# Disc length: 4654 seconds
#
# Revision: 0
# Processed by: cddbd v1.5.2PL0 Copyright (c) Steve Scherf et al.
# Submitted via: ExactAudioCopyFreeDBPlugin 1.0
#
DISCID=d1122c10
DTITLE=甲斐バンド - ロッカ・バラード
DYEAR=2009
DGENRE=Rock
TTITLE0=昨日のように
TTITLE1=BLUR LETTER
TTITLE2=最後の夜汽車 [REMIX]
TTITLE3=メガロポリス・ノクターン
TTITLE4=安奈 [REMIX]
TTITLE5=熱狂 (ステージ) [REMIX]
TTITLE6=異邦人の夜 (シスコ・ナイト)
TTITLE7=レイニー・ドライヴ
TTITLE8=陽の訪れのように [REMIX]
TTITLE9=男と女のいる舗道 [REMIX]
TTITLE10=ラヴ・マイナス・ゼロ
TTITLE11=恋のバカンス
TTITLE12=甘いKissをしようぜ
TTITLE13=人生号 Jinsei-GO!
TTITLE14=LADY
TTITLE15=嵐の季節 [From Big Night NEW EDIT]
EXTD=
EXTT0=
EXTT1=
EXTT2=
EXTT3=
EXTT4=
EXTT5=
EXTT6=
EXTT7=
EXTT8=
EXTT9=
EXTT10=
EXTT11=
EXTT12=
EXTT13=
EXTT14=
EXTT15=
PLAYORDER=
